<svg width="175" height="84" viewBox="0 0 175 84" fill="none" xmlns="http://www.w3.org/2000/svg">
    <path fill-rule="evenodd" clip-rule="evenodd" d="M145.835 31.879c-.523 0-.981.192-1.36.57a1.86 1.86 0 0 0-.572 1.357v13.777L135.8 33.44c-.619-1.037-1.529-1.562-2.704-1.562-.523 0-.981.192-1.361.57a1.86 1.86 0 0 0-.571 1.357v18.727c0 .523.192.98.571 1.357.379.378.837.57 1.361.57s.981-.192 1.36-.57c.38-.378.572-.835.572-1.357V38.805l8.103 14.093c.618 1.036 1.529 1.561 2.704 1.561.524 0 .982-.191 1.361-.57.379-.377.571-.834.571-1.356V33.806c0-.522-.192-.978-.571-1.358a1.873 1.873 0 0 0-1.361-.57Zm-64.097.025h13.076c.469 0 .876.167 1.208.495.334.328.502.73.502 1.192 0 .462-.168.863-.502 1.191-.332.328-.74.495-1.208.495h-4.55l-.002 17.255c0 .543-.195 1.01-.579 1.388-.383.378-.857.57-1.407.57-.551 0-1.025-.192-1.408-.57a1.881 1.881 0 0 1-.578-1.388V35.28l-4.552-.002c-.47 0-.876-.167-1.209-.495a1.618 1.618 0 0 1-.502-1.191c0-.463.169-.864.502-1.192.333-.328.74-.495 1.21-.495Zm36.903.57c.385-.377.848-.569 1.377-.569s.993.192 1.377.57c.384.379.579.836.579 1.357V46.51c0 5.495-2.776 8.282-8.249 8.282-5.473 0-8.248-2.787-8.248-8.282V33.893c0-.543.199-1.014.593-1.403a1.965 1.965 0 0 1 1.423-.585c.55 0 1.029.197 1.423.585.393.389.593.86.593 1.403V46.66c0 1.681.349 2.91 1.035 3.651.68.735 1.771 1.107 3.242 1.107s2.562-.372 3.242-1.106c.687-.743 1.035-1.971 1.035-3.652V33.832c0-.522.195-.979.578-1.357Zm47.001 3.672-2.899 9.281h5.797l-2.898-9.281Zm2.731-2.436 6.534 18.725c.173.49.101.972-.211 1.39a1.51 1.51 0 0 1-1.269.634h-.122a2.635 2.635 0 0 1-1.57-.51 2.653 2.653 0 0 1-.98-1.321l-1.231-4.008a.351.351 0 0 0-.036-.001h-7.696a.123.123 0 0 0-.046.005l-1.219 3.996a2.48 2.48 0 0 1-.951 1.33c-.47.338-1.008.51-1.601.51-.528 0-.955-.214-1.269-.636a1.431 1.431 0 0 1-.21-1.39l6.535-18.726c.181-.539.517-.984.996-1.322a2.704 2.704 0 0 1 1.583-.507h.183c.593 0 1.131.171 1.6.51.467.336.797.781.98 1.32Z" fill="#000"/>
    <path fill-rule="evenodd" clip-rule="evenodd" d="M53.217 42.224c3.432 0 6.223-2.793 6.223-6.227V18.323a3.53 3.53 0 0 0-3.524-3.527 3.53 3.53 0 0 0-3.523 3.527v14.971c0 1.035-.84 1.877-1.875 1.877h-8.343a1.878 1.878 0 0 1-1.875-1.877V12.581c0-4.923-4.002-8.928-8.922-8.928-4.92 0-8.923 4.005-8.923 8.928v29.214a1.878 1.878 0 0 1-1.87 1.73h-8.342a1.877 1.877 0 0 1-1.875-1.877V33.32a3.53 3.53 0 0 0-3.523-3.527A3.53 3.53 0 0 0 3.32 33.32V44.35c0 3.435 2.791 6.228 6.223 6.228h11.043c.984 0 1.793.763 1.868 1.729V79.59H40.3V44.1c0-1.034.84-1.876 1.874-1.876h11.043ZM48.57 18.453c0-4.02 3.258-7.29 7.262-7.29s7.262 3.27 7.262 7.29v17.701c0 5.512-4.466 9.996-9.957 9.996h-9.154V79.59h5.658c1.033 0 1.872.843 1.872 1.88 0 1.036-.84 1.88-1.872 1.88H13.018a1.877 1.877 0 0 1-1.872-1.88c0-1.037.84-1.88 1.872-1.88h5.659V54.282h-8.72c-5.436 0-9.868-4.395-9.956-9.83L0 44.285V33.237c0-4.019 3.258-7.29 7.262-7.29s7.262 3.271 7.262 7.29v6.464h4.152v-27C18.677 5.699 24.352 0 31.33 0s12.653 5.698 12.653 12.702v18.867h4.587V18.452Zm-13.204-4.174c-1.007 0-1.826.842-1.826 1.877v12.518c0 1.035.82 1.877 1.826 1.877 1.008 0 1.827-.842 1.827-1.877V16.155c0-1.035-.82-1.877-1.827-1.877ZM33.54 36.716c0-1.02.82-1.849 1.826-1.849a1.84 1.84 0 0 1 1.827 1.849v4.273a1.84 1.84 0 0 1-1.827 1.848 1.84 1.84 0 0 1-1.826-1.849v-4.272Zm0 11.991c0-1.04.82-1.886 1.826-1.886 1.008 0 1.827.846 1.827 1.886v2.206c0 1.04-.82 1.886-1.827 1.886-1.007 0-1.826-.846-1.826-1.886v-2.206Z" fill="#31B34E"/>
</svg>